<svg width="546" height="556" viewBox="0 0 546 556" fill="none" xmlns="http://www.w3.org/2000/svg">
<path opacity="0.56" d="M269.705 556C414.134 556 531.216 535.965 531.216 511.25C531.216 486.536 414.134 466.501 269.705 466.501C125.276 466.501 8.19336 486.536 8.19336 511.25C8.19336 535.965 125.276 556 269.705 556Z" fill="#D2EBFF"/>
<path d="M245.985 484.666C154.285 465.348 84.3834 397.507 43.8606 288.41C15.0406 210.718 11.0931 138.825 10.9534 135.821L9.38135 104.73L254.579 18.0256L499.776 104.695L498.204 135.786C498.065 138.79 494.117 210.718 465.262 288.41C424.739 397.472 354.873 465.348 263.138 484.666L254.544 486.483L245.985 484.666Z" fill="#8CB4F4"/>
<path d="M448.809 138.266L254.579 69.6222L60.3496 138.266C60.3496 138.266 73.5195 398.38 254.579 436.528C435.674 398.38 448.809 138.266 448.809 138.266Z" fill="#D2EBFF"/>
<path d="M254.125 410.048L343.17 397.332H421.456L491.428 411.026L371.047 471.706L254.125 410.048Z" fill="#4171C3"/>
<path d="M417.578 474.151C417.578 474.151 260.028 387.551 241.409 415.917C214.545 456.929 255.592 477.574 401.893 516.7L417.578 474.151Z" fill="#4171C3"/>
<path d="M461.037 517.434C464.949 508.002 460.478 497.207 451.046 493.295L414.68 478.238L400.567 512.368L436.933 527.425C446.33 531.337 457.124 526.866 461.037 517.434Z" fill="#1858B5"/>
<path d="M412.338 483.758L439.865 495.146C446.258 497.801 449.297 505.102 446.677 511.495C444.022 517.888 436.686 520.927 430.294 518.272L402.766 506.884L412.338 483.758Z" fill="#489BFF"/>
<path opacity="0.45" d="M402.907 506.604L439.272 521.661C447.726 525.154 457.228 521.905 461.909 514.429C461.664 515.442 461.42 516.455 461.001 517.434C457.088 526.866 446.294 531.337 436.862 527.425L400.496 512.368L402.907 506.604Z" fill="#063272"/>
<path d="M414.924 507.198L420.723 493.155C421.002 492.456 421.84 492.107 422.539 492.386C423.238 492.666 423.587 493.504 423.308 494.203L417.474 508.246C417.194 508.945 416.356 509.294 415.657 509.015C414.993 508.7 414.644 507.897 414.924 507.198Z" fill="#E6E6E6"/>
<path d="M423.517 510.726L429.351 496.683C429.63 495.984 430.469 495.635 431.167 495.915C431.866 496.194 432.215 497.032 431.936 497.731L426.102 511.774C425.823 512.473 424.984 512.822 424.286 512.543C423.552 512.263 423.203 511.46 423.517 510.726Z" fill="#E6E6E6"/>
<path d="M432.914 514.639L438.713 500.596C438.992 499.897 439.831 499.548 440.529 499.827C441.228 500.107 441.577 500.945 441.298 501.644L435.464 515.687C435.185 516.386 434.346 516.735 433.647 516.455C432.984 516.176 432.634 515.338 432.914 514.639Z" fill="#E6E6E6"/>
<path d="M474.66 357.124C472.249 348.81 460.162 334.697 449.473 305.807C438.329 275.764 390.82 272.515 390.82 272.515L372.375 282.367L353.965 272.48C353.965 272.48 306.455 275.729 295.312 305.772C284.587 334.662 272.535 348.775 270.125 357.089C267.714 365.403 280.779 419.271 318.333 426.921H370.942H373.807H426.417C464.005 419.306 477.105 365.438 474.66 357.124Z" fill="#9FC1F4"/>
<path d="M392.88 272.69V287.467C392.88 287.467 389.457 303.955 373.387 306.715C356.619 302.977 354.034 287.467 354.034 287.467V272.69H392.88Z" fill="#F49290"/>
<path d="M336.567 243.66C336.567 243.66 331.083 209.146 344.218 204.954C347.781 203.801 345.196 192.413 365.178 192.273C392.461 192.099 413.98 188.396 410.417 244.15L336.567 243.66Z" fill="#073A93"/>
<path d="M353.86 247.468C353.86 242.263 349.633 238.036 344.428 238.036C339.223 238.036 334.996 242.263 334.996 247.468C334.996 252.673 339.223 256.9 344.428 256.9C349.633 256.9 353.86 252.708 353.86 247.468Z" fill="#FFB5B1"/>
<path d="M411.29 247.468C411.29 242.263 407.063 238.036 401.858 238.036C396.653 238.036 392.426 242.263 392.426 247.468C392.426 252.673 396.653 256.9 401.858 256.9C407.098 256.9 411.29 252.708 411.29 247.468Z" fill="#FFB5B1"/>
<path d="M404.862 231.504H404.827C404.827 231.504 404.827 231.504 404.793 231.504C404.408 231.399 396.898 228.884 395.43 218.997L391.308 220.15C379.885 223.329 367.728 223.224 356.375 219.801L353.091 218.963C351.659 228.849 343.764 231.364 343.345 231.469H343.275L343.03 246.77C343.03 255.678 346.768 266.472 352.812 274.786C357.702 281.563 365.632 285.476 373.946 285.476C382.295 285.476 390.225 281.563 395.116 274.786C401.125 266.472 404.897 255.643 404.897 246.77V231.539L404.862 231.504Z" fill="#FFB5B1"/>
<path d="M423.027 358.032H323.677C318.157 358.032 313.651 362.504 313.651 368.058V427.62C313.651 433.139 318.122 437.646 323.677 437.646H423.062C428.582 437.646 433.088 433.174 433.088 427.62V368.058C433.053 362.504 428.582 358.032 423.027 358.032Z" fill="#D2EBFF"/>
<path d="M373.003 409.419C379.852 409.419 385.405 403.867 385.405 397.018C385.405 390.169 379.852 384.617 373.003 384.617C366.154 384.617 360.602 390.169 360.602 397.018C360.602 403.867 366.154 409.419 373.003 409.419Z" fill="#89CAF7"/>
<path d="M324.096 474.151C324.096 474.151 481.645 387.551 500.265 415.917C527.129 456.929 486.082 477.574 339.781 516.7L324.096 474.151Z" fill="#4171C4"/>
<path d="M280.639 517.434C276.727 508.002 281.198 497.207 290.63 493.295L326.996 478.238L341.109 512.368L304.744 527.425C295.346 531.337 284.552 526.866 280.639 517.434Z" fill="#1858B5"/>
<path d="M338.908 506.884L311.381 518.272C304.988 520.927 297.652 517.853 294.997 511.495C292.342 505.102 295.416 497.801 301.809 495.146L329.337 483.758L338.908 506.884Z" fill="#489BFF"/>
<path opacity="0.45" d="M338.769 506.604L302.403 521.661C293.95 525.154 284.448 521.905 279.767 514.429C280.011 515.442 280.256 516.455 280.675 517.434C284.587 526.866 295.382 531.337 304.814 527.425L341.18 512.368L338.769 506.604Z" fill="#063272"/>
<path d="M326.751 507.198L320.953 493.155C320.673 492.456 319.835 492.107 319.136 492.386C318.437 492.666 318.088 493.504 318.367 494.203L324.166 508.246C324.446 508.945 325.284 509.294 325.983 509.015C326.682 508.7 327.031 507.897 326.751 507.198Z" fill="#E6E6E6"/>
<path d="M318.158 510.726L312.359 496.683C312.079 495.984 311.241 495.635 310.542 495.915C309.844 496.194 309.494 497.032 309.774 497.731L315.573 511.774C315.852 512.473 316.691 512.822 317.389 512.543C318.123 512.263 318.472 511.46 318.158 510.726Z" fill="#E6E6E6"/>
<path d="M308.761 514.639L302.962 500.596C302.683 499.897 301.844 499.548 301.146 499.827C300.447 500.107 300.098 500.945 300.377 501.644L306.176 515.687C306.456 516.386 307.294 516.735 307.993 516.455C308.691 516.176 309.041 515.338 308.761 514.639Z" fill="#E6E6E6"/>
<path d="M83.6854 411.166C83.6854 411.166 41.9399 344.513 54.8653 334.871C67.7907 325.23 80.4366 364.46 87.0739 358.137C93.6763 351.849 64.0528 295.816 78.0261 283.764C92.0344 271.712 90.9864 312.619 102.864 320.234C114.741 327.85 96.436 264.481 110.654 254.56C124.872 244.673 131.719 276.183 131.719 276.183C131.719 276.183 147.474 213.443 168.678 225.74C189.883 238.036 136.155 301.231 148.766 299.065C161.377 296.899 174.338 275.59 185.272 289.947C196.206 304.305 124.557 340.915 136.051 339.972C147.544 339.029 167.875 324.776 171.403 337.491C174.931 350.172 113.274 373.089 119.667 377.49C126.06 381.892 158.303 356.984 163.368 375.324C168.469 393.595 96.471 422.834 83.6854 411.166Z" fill="#7895C8"/>
<path d="M78.6201 437.191C86.4103 424.196 92.9079 410.118 97.9383 395.306C100.593 387.516 102.829 379.481 105.03 371.691C106.008 368.163 107.021 364.6 108.034 361.072C119.527 321.667 135.806 283.624 156.347 248.062L157.15 248.516C136.644 284.008 120.435 321.981 108.942 361.316C107.929 364.844 106.916 368.373 105.938 371.936C103.737 379.726 101.501 387.796 98.8466 395.586C93.7812 410.467 87.2836 424.615 79.4585 437.681L78.6201 437.191Z" fill="#D2EBFF"/>
<path d="M124.139 313.877C124.069 313.807 123.999 313.737 123.964 313.632C119.283 299.309 116.104 284.428 114.532 269.406C114.497 269.162 114.707 268.917 114.951 268.882C115.196 268.847 115.44 269.057 115.475 269.302C117.047 284.253 120.191 299.065 124.872 313.318C124.942 313.562 124.803 313.842 124.558 313.912C124.418 313.981 124.244 313.946 124.139 313.877Z" fill="#D2EBFF"/>
<path d="M118.27 331.169C118.235 331.134 118.2 331.099 118.165 331.064C118.026 330.854 118.061 330.575 118.27 330.4C131.196 320.933 144.575 311.187 158.933 303.362C161.553 301.929 164.382 300.462 167.491 299.729C167.736 299.659 168.015 299.833 168.05 300.078C168.12 300.322 167.945 300.567 167.701 300.637C164.732 301.37 161.972 302.803 159.387 304.2C145.099 311.99 131.754 321.737 118.829 331.169C118.654 331.308 118.445 331.308 118.27 331.169Z" fill="#D2EBFF"/>
<path d="M108.943 359.569C108.908 359.534 108.838 359.5 108.803 359.43C103.353 351.22 96.4365 340.251 91.476 328.374C88.0874 320.269 85.5722 311.711 83.1269 303.431C83.057 303.187 83.1967 302.907 83.4413 302.838C83.6858 302.768 83.9653 302.907 84.0351 303.152C86.4805 311.396 88.9957 319.92 92.3493 327.99C97.3098 339.797 104.157 350.696 109.606 358.871C109.746 359.08 109.676 359.395 109.467 359.534C109.292 359.709 109.082 359.674 108.943 359.569Z" fill="#D2EBFF"/>
<path d="M108.803 360.023C108.628 359.919 108.558 359.674 108.628 359.465C108.733 359.22 108.977 359.08 109.222 359.185C110.549 359.674 112.016 359.465 113.449 359.22C117.256 358.486 120.994 357.089 124.592 355.762C125.256 355.517 125.92 355.273 126.619 355.028C137.273 351.15 148.417 348.181 159.176 345.282C159.421 345.212 159.7 345.351 159.735 345.631C159.805 345.875 159.666 346.155 159.386 346.19C148.627 349.054 137.518 352.024 126.898 355.901C126.234 356.146 125.571 356.39 124.872 356.635C121.239 357.997 117.466 359.395 113.588 360.128C112.121 360.408 110.409 360.617 108.872 360.058C108.872 360.058 108.837 360.023 108.803 360.023Z" fill="#D2EBFF"/>
<path d="M97.3797 397.472C84.9084 388.878 70.6207 365.788 62.1668 348.6C62.062 348.356 62.1319 348.076 62.3764 347.971C62.6209 347.867 62.9004 347.937 63.0052 348.181C71.4241 365.264 85.6071 388.215 97.9386 396.704C98.1482 396.843 98.2181 397.158 98.0434 397.367C97.8687 397.577 97.5893 397.612 97.3797 397.472Z" fill="#D2EBFF"/>
<path d="M98.1826 397.821C98.0778 397.752 97.973 397.647 97.8682 397.577C97.6586 397.402 97.6237 397.123 97.7984 396.913C97.973 396.704 98.2874 396.704 98.4621 396.843C100.244 398.276 102.864 397.821 105.484 397.123L151.002 384.652C151.246 384.582 151.526 384.721 151.596 384.966C151.666 385.21 151.526 385.49 151.281 385.56L105.693 398.031C103.003 398.765 100.244 399.254 98.1826 397.821Z" fill="#D2EBFF"/>
<path d="M78.1306 409.943C78.1306 409.943 5.8883 378.643 11.0584 363.342C16.2286 348.041 48.9612 373.228 50.8476 364.285C52.734 355.343 -3.50879 325.929 1.20722 308.043C5.92323 290.157 28.2806 324.531 42.3937 324.042C56.5068 323.588 5.43416 281.668 11.5475 265.459C17.6609 249.215 41.206 271.328 41.206 271.328C41.206 271.328 18.6041 210.613 43.0924 208.727C67.5807 206.841 59.0919 289.458 68.2794 280.515C77.4668 271.572 76.0346 246.63 93.2218 252.289C110.409 257.948 72.0522 328.758 80.9951 321.492C89.9381 314.191 98.6365 290.89 108.767 299.379C118.898 307.868 80.9951 361.735 88.7503 361.735C96.5055 361.735 108.977 322.889 123.579 335.151C138.146 347.343 95.3178 412.284 78.1306 409.943Z" fill="#A5CEFF"/>
<path d="M88.7155 434.292C87.7723 419.166 85.1174 403.865 80.8555 388.774C78.6198 380.844 75.9299 372.949 73.3099 365.264C72.1222 361.77 70.9344 358.277 69.7816 354.784C56.9261 315.728 48.7517 275.135 45.5029 234.124L46.4461 234.054C49.66 274.996 57.8344 315.483 70.655 354.469C71.8078 357.962 72.9955 361.456 74.1832 364.949C76.8033 372.635 79.5281 380.564 81.7638 388.494C86.0257 403.655 88.6806 419.026 89.6238 434.222L88.7155 434.292Z" fill="#D2EBFF"/>
<path d="M56.332 306.715C56.2272 306.715 56.1224 306.68 56.0525 306.61C44.0354 297.458 32.9965 286.978 23.1802 275.485C23.0055 275.275 23.0405 274.996 23.2501 274.821C23.4597 274.646 23.7391 274.681 23.9138 274.891C33.6602 286.349 44.6992 296.759 56.6464 305.877C56.856 306.017 56.8909 306.331 56.7512 306.541C56.6115 306.645 56.4717 306.715 56.332 306.715Z" fill="#D2EBFF"/>
<path d="M61.2928 324.322C61.2579 324.322 61.188 324.322 61.1531 324.287C60.9085 324.217 60.7688 323.937 60.8736 323.693C66.1835 308.567 71.668 292.882 79.0739 278.314C80.4363 275.624 81.9384 272.83 84.0694 270.454C84.244 270.245 84.5584 270.245 84.7331 270.419C84.9427 270.594 84.9427 270.874 84.768 271.083C82.7419 273.354 81.2398 276.114 79.9123 278.734C72.5413 293.266 67.0568 308.881 61.7469 324.007C61.6771 324.182 61.5024 324.322 61.2928 324.322Z" fill="#D2EBFF"/>
<path d="M69.7119 353.037C69.642 353.037 69.6071 353.037 69.5372 353.002C60.3847 349.334 48.4724 344.199 37.6081 337.212C30.2022 332.461 23.2854 326.837 16.5782 321.387C16.3686 321.213 16.3337 320.933 16.5083 320.724C16.683 320.514 16.9625 320.479 17.1721 320.654C23.8443 326.068 30.7611 331.693 38.1321 336.444C48.9265 343.395 60.7689 348.496 69.8866 352.129C70.1311 352.234 70.2359 352.513 70.1311 352.758C70.0612 352.932 69.8866 353.037 69.7119 353.037Z" fill="#D2EBFF"/>
<path d="M69.8172 353.491C69.6076 353.491 69.4329 353.351 69.363 353.142C69.2932 352.897 69.4329 352.618 69.7124 352.583C71.0748 352.233 72.1926 351.22 73.2057 350.207C75.9305 347.448 78.2361 344.164 80.4369 341.02C80.8561 340.426 81.2753 339.832 81.6945 339.273C88.2969 330.016 95.7727 321.247 103.039 312.759C103.213 312.549 103.493 312.549 103.703 312.724C103.912 312.898 103.912 313.178 103.737 313.387C96.5063 321.841 89.0305 330.61 82.463 339.832C82.0438 340.426 81.6246 340.985 81.2404 341.579C79.0046 344.758 76.699 348.041 73.9044 350.871C72.8564 351.919 71.5638 353.072 69.9918 353.491C69.922 353.491 69.8521 353.491 69.8172 353.491Z" fill="#D2EBFF"/>
<path d="M81.6587 390.87C66.4976 390.87 41.59 379.901 24.8569 370.539C24.6473 370.399 24.5425 370.119 24.6823 369.91C24.822 369.665 25.1015 369.595 25.3111 369.735C41.9394 379.062 66.6722 389.961 81.6587 389.961C81.9032 389.961 82.1128 390.171 82.1128 390.416C82.1128 390.66 81.9032 390.87 81.6587 390.87Z" fill="#D2EBFF"/>
<path d="M82.5327 390.73C82.3929 390.73 82.2532 390.73 82.1135 390.695C81.8689 390.66 81.6593 390.451 81.6943 390.171C81.7292 389.927 81.9737 389.717 82.2183 389.752C84.4889 389.927 86.4103 388.075 88.1569 385.979L118.654 349.858C118.828 349.648 119.108 349.648 119.318 349.788C119.527 349.963 119.527 350.242 119.387 350.452L88.8905 386.573C87.0391 388.739 85.0479 390.73 82.5327 390.73Z" fill="#D2EBFF"/>
<path d="M46.1665 421.087L57.6945 492.491C59.3364 502.622 68.0697 510.063 78.3402 510.063H113.483C123.754 510.063 132.487 502.622 134.129 492.491L145.657 421.087H46.1665Z" fill="#D2EBFF"/>
<path d="M145.657 421.087H126.059H46.1665L47.7734 430.973H124.487L114.531 492.491C112.889 502.622 104.156 510.063 93.8855 510.063H113.483C123.754 510.063 132.487 502.622 134.129 492.491L144.085 430.973L145.657 421.087Z" fill="#ACCFE5"/>
<path d="M146.74 400.546H45.0488C39.3197 400.546 34.6387 405.227 34.6387 410.957C34.6387 416.686 39.3197 421.367 45.0488 421.367H146.775C152.504 421.367 157.185 416.686 157.185 410.957C157.15 405.227 152.469 400.546 146.74 400.546Z" fill="#D2EBFF"/>
<path d="M534.64 102.809H329.86C324.061 102.809 319.311 107.56 319.311 113.359V162.056C319.311 167.855 324.061 172.606 329.86 172.606H534.675C540.474 172.606 545.225 167.855 545.225 162.056V113.359C545.19 107.56 540.439 102.809 534.64 102.809Z" fill="#FFAA45"/>
<path d="M368.182 162.091H340.026C337.615 162.091 335.624 160.135 335.624 157.689V138.441C335.624 136.031 337.58 134.039 340.026 134.039H368.182C370.592 134.039 372.584 135.996 372.584 138.441V157.689C372.584 160.135 370.627 162.091 368.182 162.091Z" fill="#073A93"/>
<path d="M366.889 130.895H363.396V125.376C363.396 120.241 359.239 116.084 354.104 116.084C348.968 116.084 344.811 120.241 344.811 125.376V130.895H341.318V125.376C341.318 118.319 347.047 112.625 354.104 112.625C361.16 112.625 366.854 118.354 366.854 125.376V130.895H366.889Z" fill="#073A93"/>
<path d="M358.016 144.38C358.016 142.214 356.269 140.502 354.138 140.502C352.007 140.502 350.261 142.249 350.261 144.38C350.261 145.812 351.064 147.07 352.252 147.733L350.89 155.419H357.422L356.06 147.733C357.212 147.104 358.016 145.847 358.016 144.38Z" fill="#FFAA45"/>
<path d="M413.491 146.196C417.022 146.196 419.884 143.334 419.884 139.803C419.884 136.273 417.022 133.411 413.491 133.411C409.96 133.411 407.098 136.273 407.098 139.803C407.098 143.334 409.96 146.196 413.491 146.196Z" fill="#073A93"/>
<path d="M437.875 146.196C441.405 146.196 444.268 143.334 444.268 139.803C444.268 136.273 441.405 133.411 437.875 133.411C434.344 133.411 431.482 136.273 431.482 139.803C431.482 143.334 434.344 146.196 437.875 146.196Z" fill="#073A93"/>
<path d="M468.616 139.803C468.616 143.332 465.751 146.196 462.223 146.196C458.695 146.196 455.83 143.332 455.83 139.803C455.83 136.275 458.695 133.411 462.223 133.411C465.751 133.411 468.616 136.275 468.616 139.803Z" fill="#073A93"/>
<path d="M492.999 139.803C492.999 143.332 490.134 146.196 486.606 146.196C483.078 146.196 480.213 143.332 480.213 139.803C480.213 136.275 483.078 133.411 486.606 133.411C490.134 133.411 492.999 136.275 492.999 139.803Z" fill="#073A93"/>
<path d="M517.382 139.803C517.382 143.332 514.518 146.196 510.989 146.196C507.461 146.196 504.597 143.332 504.597 139.803C504.597 136.275 507.461 133.411 510.989 133.411C514.518 133.411 517.382 136.275 517.382 139.803Z" fill="#073A93"/>
<path d="M209.271 10.8992V95.9271C209.271 101.901 204.345 106.826 198.371 106.826H42.9527C36.9442 106.826 32.0186 101.901 32.0186 95.9271V10.8992C32.0186 4.92561 36.9442 0 42.9527 0H198.371C204.345 0 209.271 4.92561 209.271 10.8992Z" fill="#89CAF7"/>
<path d="M209.235 29.7982H32.0181V53.8324H209.235V29.7982Z" fill="#073A93"/>
<path d="M195.541 67.8058H151.42C149.219 67.8058 147.403 69.5874 147.403 71.8231C147.403 74.0239 149.184 75.8405 151.42 75.8405H195.506C197.707 75.8405 199.523 74.0589 199.523 71.8231C199.523 69.5874 197.742 67.8058 195.541 67.8058Z" fill="#073A93"/>
<path d="M195.54 83.4908H175.489C173.288 83.4908 171.471 85.2724 171.471 87.5082C171.471 89.709 173.253 91.5255 175.489 91.5255H195.54C197.741 91.5255 199.558 89.7439 199.558 87.5082C199.523 85.2724 197.741 83.4908 195.54 83.4908Z" fill="#073A93"/>
</svg>
