<svg width="607" height="536" viewBox="0 0 607 536" fill="none" xmlns="http://www.w3.org/2000/svg">
<ellipse cx="119.5" cy="210" rx="56.5" ry="55" fill="#FF1E56" fill-opacity="0.74"/>
<path d="M306.894 13.0233C248.481 -8.7087 1 5.6565 1 5.6565V166.252C26.9233 180.617 60.4507 210.453 84.6457 211.558C108.841 212.663 157.231 190.931 213.571 201.244C269.911 211.558 333.163 298.117 397.107 306.589C461.051 315.061 600 298.486 600 298.486V157.78C600 157.78 470.038 134.943 420.265 104.003C370.493 73.0624 365.308 34.7552 306.894 13.0233Z" fill="#FFAC41" fill-opacity="0.95" stroke="#FFA41B"/>
<path d="M443.413 259.804C526.647 235.301 600 337.196 600 337.196V437H435.928C396.407 437 381.137 380.823 379.64 371.56C378.143 362.297 360.179 284.306 443.413 259.804Z" fill="#FF1E56" fill-opacity="0.78" stroke="#FF1E56" stroke-opacity="0.99"/>
<path d="M137 399.5C89.5 392 1.5 450 1.5 450V535C1.5 535 64 505 149 523C234 541 292.5 496.5 361 489C429.5 481.5 604 472.5 604 472.5C574.458 430.754 615.428 354.476 604 338C604 338 380.5 374 301.5 399.5C222.5 425 184.5 407 137 399.5Z" fill="#FFAC41" fill-opacity="0.94" stroke="#FFAC41" stroke-opacity="0.94"/>
<circle cx="154.5" cy="401.5" r="35.5" fill="#FF1E56" fill-opacity="0.65"/>
</svg>
