<svg width="601" height="533" viewBox="0 0 601 533" fill="none" xmlns="http://www.w3.org/2000/svg">
<ellipse cx="119.5" cy="210" rx="56.5" ry="55" fill="#FF1E56" fill-opacity="0.74"/>
<path d="M306.894 13.0233C248.481 -8.7087 1 5.6565 1 5.6565V166.252C26.9233 180.617 60.4507 210.453 84.6457 211.558C108.841 212.663 157.231 190.931 213.571 201.244C269.911 211.558 333.163 298.117 397.107 306.589C461.051 315.061 600 298.486 600 298.486V157.78C600 157.78 470.038 134.943 420.265 104.003C370.493 73.0624 365.308 34.7552 306.894 13.0233Z" fill="#FFAC41" fill-opacity="0.95" stroke="#FFA41B"/>
<path d="M443.413 259.804C526.647 235.301 600 337.196 600 337.196V437H435.928C396.407 437 381.137 380.823 379.64 371.56C378.143 362.297 360.179 284.306 443.413 259.804Z" fill="#FF1E56" fill-opacity="0.78" stroke="#FF1E56" stroke-opacity="0.99"/>
<circle cx="78.5" cy="464.5" r="68.5" fill="#133B5C" fill-opacity="0.86"/>
<ellipse cx="147.5" cy="441.5" rx="48.5" ry="45.5" fill="#FFAC41" fill-opacity="0.89"/>
</svg>
