<svg width="309" height="88" viewBox="0 0 309 88" fill="none" xmlns="http://www.w3.org/2000/svg">
<style>.impedia_930 {
	animation: 1.5s linear 0s infinite normal forwards running impedia_930;
}
@keyframes impedia_930 {
	0% {
		fill: rgba(255,172,65,1);
	}
	33.33% {
		fill: rgba(255,255,255,1);
	}
	66.67% {
		fill: rgba(255,30,86,1);
	}
	100% {
		fill: rgba(255,30,86,1);
	}
}
</style>
<path d="M5.184 31.264H16.416V70H5.184V31.264ZM10.8 25.864C8.736 25.864 7.056 25.264 5.76 24.064C4.464 22.864 3.816 21.376 3.816 19.6C3.816 17.824 4.464 16.336 5.76 15.136C7.056 13.936 8.736 13.336 10.8 13.336C12.864 13.336 14.544 13.912 15.84 15.064C17.136 16.216 17.784 17.656 17.784 19.384C17.784 21.256 17.136 22.816 15.84 24.064C14.544 25.264 12.864 25.864 10.8 25.864ZM76.4483 30.688C81.2963 30.688 85.1363 32.128 87.9683 35.008C90.8483 37.84 92.2883 42.112 92.2883 47.824V70H81.0563V49.552C81.0563 46.48 80.4083 44.2 79.1123 42.712C77.8643 41.176 76.0643 40.408 73.7123 40.408C71.0723 40.408 68.9843 41.272 67.4483 43C65.9123 44.68 65.1443 47.2 65.1443 50.56V70H53.9123V49.552C53.9123 43.456 51.4643 40.408 46.5683 40.408C43.9763 40.408 41.9123 41.272 40.3763 43C38.8403 44.68 38.0723 47.2 38.0723 50.56V70H26.8403V31.264H37.5683V35.728C39.0083 34.096 40.7603 32.848 42.8242 31.984C44.9363 31.12 47.2403 30.688 49.7363 30.688C52.4723 30.688 54.9443 31.24 57.1523 32.344C59.3603 33.4 61.1363 34.96 62.4803 37.024C64.0643 35.008 66.0563 33.448 68.4563 32.344C70.9043 31.24 73.5683 30.688 76.4483 30.688ZM125.252 30.688C128.852 30.688 132.116 31.528 135.044 33.208C138.02 34.84 140.348 37.168 142.028 40.192C143.708 43.168 144.548 46.648 144.548 50.632C144.548 54.616 143.708 58.12 142.028 61.144C140.348 64.12 138.02 66.448 135.044 68.128C132.116 69.76 128.852 70.576 125.252 70.576C120.308 70.576 116.42 69.016 113.588 65.896V83.968H102.356V31.264H113.084V35.728C115.868 32.368 119.924 30.688 125.252 30.688ZM123.308 61.36C126.188 61.36 128.54 60.4 130.364 58.48C132.236 56.512 133.172 53.896 133.172 50.632C133.172 47.368 132.236 44.776 130.364 42.856C128.54 40.888 126.188 39.904 123.308 39.904C120.428 39.904 118.052 40.888 116.18 42.856C114.356 44.776 113.444 47.368 113.444 50.632C113.444 53.896 114.356 56.512 116.18 58.48C118.052 60.4 120.428 61.36 123.308 61.36ZM190.011 50.776C190.011 50.92 189.939 51.928 189.795 53.8H160.491C161.019 56.2 162.267 58.096 164.235 59.488C166.203 60.88 168.651 61.576 171.579 61.576C173.595 61.576 175.371 61.288 176.907 60.712C178.491 60.088 179.955 59.128 181.299 57.832L187.275 64.312C183.627 68.488 178.299 70.576 171.291 70.576C166.923 70.576 163.059 69.736 159.699 68.056C156.339 66.328 153.747 63.952 151.923 60.928C150.099 57.904 149.187 54.472 149.187 50.632C149.187 46.84 150.075 43.432 151.851 40.408C153.675 37.336 156.147 34.96 159.267 33.28C162.435 31.552 165.963 30.688 169.851 30.688C173.643 30.688 177.075 31.504 180.147 33.136C183.219 34.768 185.619 37.12 187.347 40.192C189.123 43.216 190.011 46.744 190.011 50.776ZM169.923 39.184C167.379 39.184 165.243 39.904 163.515 41.344C161.787 42.784 160.731 44.752 160.347 47.248H179.427C179.043 44.8 177.987 42.856 176.259 41.416C174.531 39.928 172.419 39.184 169.923 39.184ZM236.945 16.576V70H226.217V65.536C223.433 68.896 219.401 70.576 214.121 70.576C210.473 70.576 207.161 69.76 204.185 68.128C201.257 66.496 198.953 64.168 197.273 61.144C195.593 58.12 194.753 54.616 194.753 50.632C194.753 46.648 195.593 43.144 197.273 40.12C198.953 37.096 201.257 34.768 204.185 33.136C207.161 31.504 210.473 30.688 214.121 30.688C219.065 30.688 222.929 32.248 225.713 35.368V16.576H236.945ZM216.065 61.36C218.897 61.36 221.249 60.4 223.121 58.48C224.993 56.512 225.929 53.896 225.929 50.632C225.929 47.368 224.993 44.776 223.121 42.856C221.249 40.888 218.897 39.904 216.065 39.904C213.185 39.904 210.809 40.888 208.937 42.856C207.065 44.776 206.129 47.368 206.129 50.632C206.129 53.896 207.065 56.512 208.937 58.48C210.809 60.4 213.185 61.36 216.065 61.36ZM247.34 31.264H258.572V70H247.34V31.264ZM252.956 25.864C250.892 25.864 249.212 25.264 247.916 24.064C246.62 22.864 245.972 21.376 245.972 19.6C245.972 17.824 246.62 16.336 247.916 15.136C249.212 13.936 250.892 13.336 252.956 13.336C255.02 13.336 256.7 13.912 257.996 15.064C259.292 16.216 259.94 17.656 259.94 19.384C259.94 21.256 259.292 22.816 257.996 24.064C256.7 25.264 255.02 25.864 252.956 25.864ZM284.621 30.688C290.621 30.688 295.229 32.128 298.445 35.008C301.661 37.84 303.269 42.136 303.269 47.896V70H292.757V65.176C290.645 68.776 286.709 70.576 280.949 70.576C277.973 70.576 275.381 70.072 273.173 69.064C271.013 68.056 269.357 66.664 268.205 64.888C267.053 63.112 266.477 61.096 266.477 58.84C266.477 55.24 267.821 52.408 270.509 50.344C273.245 48.28 277.445 47.248 283.109 47.248H292.037C292.037 44.8 291.293 42.928 289.805 41.632C288.317 40.288 286.085 39.616 283.109 39.616C281.045 39.616 279.005 39.952 276.989 40.624C275.021 41.248 273.341 42.112 271.949 43.216L267.917 35.368C270.029 33.88 272.549 32.728 275.477 31.912C278.453 31.096 281.501 30.688 284.621 30.688ZM283.757 63.016C285.677 63.016 287.381 62.584 288.869 61.72C290.357 60.808 291.413 59.488 292.037 57.76V53.8H284.333C279.725 53.8 277.421 55.312 277.421 58.336C277.421 59.776 277.973 60.928 279.077 61.792C280.229 62.608 281.789 63.016 283.757 63.016Z" fill="#FF1E56" class="impedia_930"/>
</svg>