<svg width="348" height="189" viewBox="0 0 348 189" fill="none" xmlns="http://www.w3.org/2000/svg">
<g clip-path="url(#clip0)">
<path opacity="0.1" d="M344.311 175.354C342.961 178.671 341.298 181.854 339.345 184.86C338.43 186.293 337.425 187.668 336.337 188.977C336.328 188.99 336.317 189.003 336.304 189.013H0L0.0453912 188.977C0.348 188.742 2.12431 187.311 4.88713 184.86C6.86922 183.104 9.35666 180.821 12.1497 178.074C34.9937 155.71 78.875 102.774 42.3289 54.2805C8.35503 9.19984 44.9344 1.01924 69.0644 0.0644362C78.3353 -0.297065 87.5842 1.20787 96.2568 4.48907C107.405 8.70587 127.78 15.1696 154.324 18.1334C155.196 18.2298 156.073 18.3262 156.963 18.4135C171.017 19.8378 185.165 20.0937 199.262 19.1786C199.676 19.1545 200.094 19.1244 200.515 19.0943C214.459 18.1196 228.298 15.9888 241.887 12.7239C242.768 12.51 243.636 12.3082 244.502 12.1064C289.781 1.67887 331.523 37.2175 321.086 77.3795C317.228 92.2347 318.208 108.069 331.072 120.879C352.134 141.788 349.583 162.381 344.311 175.354Z" fill="#FF1E56"/>
<path d="M344.311 175.353C342.961 178.67 341.298 181.853 339.345 184.858C338.43 186.292 337.425 187.667 336.337 188.976H0.0453796C0.347988 188.741 2.1243 187.31 4.88712 184.858C6.86921 183.102 9.35665 180.819 12.1497 178.072L47.5943 170.783C48.0523 170.689 48.5187 170.642 48.9863 170.642L86.773 170.588H86.8124L105.529 170.564H105.571L121.367 170.545H131.707H142.299L185.699 170.485H185.768H189.13H195.037H202.412H204.373L211.826 170.401H214.289L235.968 170.371H242.892H246.221L271.261 170.338H278.718L302.436 170.304L322.457 170.28C323.014 170.281 323.57 170.346 324.112 170.476L344.311 175.353Z" fill="#454B69"/>
<path opacity="0.4" d="M4.88712 184.859H339.345C338.43 186.292 337.425 187.667 336.337 188.976H0.0453796C0.341936 188.726 2.11825 187.295 4.88712 184.859Z" fill="black"/>
<path d="M221.879 91.1853L221.207 91.3148L190.837 97.122C182.016 98.8087 173.068 100.504 164.108 99.8569C157.617 99.387 151.552 97.4714 145.316 95.7907C141.79 94.8389 138.053 94.4593 136.858 90.5317C135.209 85.1101 137.893 77.0831 138.525 71.5892C139.13 66.1978 139.487 60.6707 138.41 55.3425C138.171 54.1451 137.856 52.9641 137.466 51.8064C136.386 48.6167 134.688 45.3005 135.605 42.0626C136.328 39.4934 138.534 37.659 140.598 35.9603C144.641 32.6471 148.768 28.9333 150.372 23.9665C151.159 21.5569 151.307 18.9636 152.155 16.572C153.762 12.0239 157.798 8.62337 162.289 6.82219C166.78 5.02101 171.718 4.63849 176.563 4.63849C180.841 4.63873 185.114 4.92147 189.354 5.48486C193.978 6.08726 198.644 7.07821 202.708 9.3613C206.773 11.6444 210.198 15.3853 211.145 19.9455C212.486 26.3942 208.764 33.2615 210.761 39.5235C211.766 42.6891 214.09 45.2463 215.702 48.1438C217.018 50.5676 217.829 53.23 218.089 55.9725C218.349 58.7151 218.052 61.4816 217.216 64.1074C215.285 70.0621 210.558 76.0862 212.979 81.8602C214.519 85.5318 218.453 87.4926 221.195 90.4022C221.439 90.6632 221.667 90.9243 221.879 91.1853Z" fill="#454B69"/>
<path opacity="0.1" d="M221.207 90.4263V91.3148L190.837 97.1219C182.016 98.8087 173.068 100.504 164.108 99.8568C157.617 99.387 151.552 97.4713 145.316 95.7906C141.79 94.8389 138.053 94.4593 136.858 90.5317C135.209 85.1101 137.893 77.0831 138.525 71.5892C139.13 66.1977 148.448 46.5143 147.37 41.1861L203.05 43.5957C203.426 46.5384 218.142 61.3093 217.225 64.1315C215.294 70.0862 210.567 76.1102 212.988 81.8842C214.531 85.5559 218.465 87.5167 221.207 90.4263Z" fill="black"/>
<path d="M164.317 75.5229C164.646 77.3873 164.822 79.4385 163.866 81.065C162.592 83.2457 159.814 83.9415 157.329 84.4354L148.705 86.1523C148.118 86.2697 147.495 86.4023 147.056 86.8029C146.538 87.2637 146.363 87.9926 146.287 88.6793C145.939 91.7877 147.044 94.8509 148.051 97.8117C150.088 103.809 151.798 109.932 154.373 115.718C156.948 121.504 160.482 127.028 165.527 130.896C170.571 134.763 177.247 136.823 183.423 135.311C188.804 133.995 193.216 130.215 197.019 126.206C200.157 122.893 203.093 119.278 204.615 114.98C205.665 112.028 206.007 108.884 206.337 105.769C206.847 100.994 207.358 96.2194 207.868 91.4443C208.107 89.2034 208.264 86.6824 206.803 84.9625C206.161 84.2065 205.29 83.7035 204.4 83.2366C201.09 81.4867 197.603 80.0409 194.523 77.9325C191.442 75.8241 188.71 72.9205 187.775 69.3182C187.215 67.1556 187.315 64.8002 186.362 62.7852C185.296 60.5262 183.033 58.9961 180.612 58.3244C178.191 57.6527 175.637 57.7431 173.144 58.0232C170.65 58.3033 161.039 59.0202 160.007 61.8183C159.454 63.3243 161.75 66.5562 162.295 68.0381C163.192 70.4681 163.868 72.973 164.317 75.5229Z" fill="#EFB7B9"/>
<path opacity="0.1" d="M164.317 75.5229C164.646 77.3873 164.822 79.4385 163.866 81.065C162.592 83.2457 159.814 83.9415 157.329 84.4354L148.705 86.1523C148.118 86.2697 147.495 86.4023 147.056 86.8029C146.538 87.2637 146.363 87.9926 146.287 88.6793C145.939 91.7877 147.044 94.8509 148.051 97.8117C150.088 103.809 151.798 109.932 154.373 115.718C156.948 121.504 160.482 127.028 165.527 130.896C170.571 134.763 177.247 136.823 183.423 135.311C188.804 133.995 193.216 130.215 197.019 126.206C200.157 122.893 203.093 119.278 204.615 114.98C205.665 112.028 206.007 108.884 206.337 105.769C206.847 100.994 207.358 96.2194 207.868 91.4443C208.107 89.2034 208.264 86.6824 206.803 84.9625C206.161 84.2065 205.29 83.7035 204.4 83.2366C201.09 81.4867 197.603 80.0409 194.523 77.9325C191.442 75.8241 188.71 72.9205 187.775 69.3182C187.215 67.1556 187.315 64.8002 186.362 62.7852C185.296 60.5262 183.033 58.9961 180.612 58.3244C178.191 57.6527 175.637 57.7431 173.144 58.0232C170.65 58.3033 161.039 59.0202 160.007 61.8183C159.454 63.3243 161.75 66.5562 162.295 68.0381C163.192 70.4681 163.868 72.973 164.317 75.5229Z" fill="black"/>
<path d="M185.072 108.275L190.129 97.6189C192.498 92.625 194.919 87.3781 194.668 81.8632C194.62 80.7668 194.608 79.3963 195.576 78.8993C195.996 78.7285 196.454 78.6703 196.904 78.7307C202.228 79.0016 207.481 80.0594 212.492 81.8692C213.463 82.2186 214.459 82.6222 215.14 83.3933C215.82 84.1643 216.096 85.2005 216.329 86.1944C217.123 89.5551 217.702 92.9625 218.063 96.3961C218.971 104.896 218.52 113.471 218.063 121.998L216.719 148.031C216.726 148.4 216.651 148.766 216.498 149.103C216.165 149.705 215.415 149.907 214.74 150.022C212.141 150.464 209.484 150.374 206.851 150.275C188.332 149.576 169.715 148.504 151.316 150.739C151.399 148.03 151.356 145.319 151.186 142.606C150.457 130.892 147.407 119.465 144.411 108.116C142.665 101.489 140.973 94.2606 143.785 88.0167C144.198 87.0306 144.792 86.1298 145.537 85.3601C146.732 84.1944 148.363 83.58 149.979 83.1403C152.766 82.3856 155.653 82.0605 158.54 82.1764L177.619 123.522C178.491 125.414 179.208 127.405 180.076 129.272C180.857 126.046 179.919 122.266 180.857 118.769C181.868 115.14 183.46 111.667 185.072 108.275Z" fill="white"/>
<path d="M183.078 136.724C186.492 136.938 189.808 135.197 192.157 132.736C194.505 130.275 196.054 127.155 197.364 124.001C199.248 119.506 200.745 114.86 201.84 110.113C202.748 106.077 203.392 101.899 202.766 97.8086C201.901 92.1611 198.69 87.0287 198.142 81.342C198.048 80.3481 198.109 79.1854 198.911 78.586C199.407 78.2156 200.061 78.1644 200.678 78.1282C206.385 77.7909 212.655 77.8541 217.076 81.4595C218.423 82.5559 219.515 83.9263 220.832 85.0558C223.967 87.7666 228.397 89.1461 230.409 92.7455C231.111 93.9984 231.447 95.4171 231.937 96.7665C233.093 99.9592 235.094 102.766 237.082 105.528C235.154 113.625 232.939 121.727 231.012 129.823C229.883 134.573 228.745 139.341 226.972 143.889C225.81 146.871 224.348 149.913 224.705 153.106C224.847 154.362 225.268 155.564 225.634 156.775C226.918 161.024 227.519 165.449 227.417 169.886L141.07 170.097C145.207 164.193 146.42 156.952 146 149.769C145.797 146.326 145.016 142.862 143.276 139.883C140.535 135.215 135.711 132.173 130.957 129.567C127.628 127.76 124.054 137.928 120.456 136.763C121.037 132.673 121.304 116.884 121.062 112.766C120.983 111.417 120.862 110.031 121.28 108.742C121.564 107.86 122.087 107.071 122.442 106.212C123.861 102.775 122.508 98.3809 124.802 95.4563C126.388 93.4232 129.169 92.8449 131.429 91.5919C133.75 90.3027 135.544 88.2787 137.566 86.5498C141.532 83.1975 146.379 81.0436 151.534 80.342C153.038 82.7032 153.952 85.3884 154.2 88.1732C154.355 89.9232 154.243 91.6973 154.488 93.4382C154.824 95.7966 155.804 98.0104 156.776 100.191C160.821 109.284 164.882 118.405 170.009 126.944C171.458 129.353 173.035 131.763 175.135 133.639C177.235 135.516 180.258 136.856 183.078 136.724Z" fill="#FF1E56"/>
<path opacity="0.1" d="M183.078 136.724C186.492 136.938 189.808 135.197 192.157 132.736C194.505 130.275 196.054 127.155 197.364 124.001C199.248 119.506 200.745 114.86 201.84 110.113C202.748 106.077 203.392 101.899 202.766 97.8086C201.901 92.1611 198.69 87.0287 198.142 81.342C198.048 80.3481 198.109 79.1854 198.911 78.586C199.407 78.2156 200.061 78.1644 200.678 78.1282C206.385 77.7909 212.655 77.8541 217.076 81.4595C218.423 82.5559 219.515 83.9263 220.832 85.0558C223.967 87.7666 228.397 89.1461 230.409 92.7455C231.111 93.9984 231.447 95.4171 231.937 96.7665C233.093 99.9592 235.094 102.766 237.082 105.528C235.154 113.625 232.939 121.727 231.012 129.823C229.883 134.573 228.745 139.341 226.972 143.889C225.81 146.871 224.348 149.913 224.705 153.106C224.847 154.362 225.268 155.564 225.634 156.775C226.918 161.024 227.519 165.449 227.417 169.886L141.07 170.097C145.207 164.193 146.42 156.952 146 149.769C145.797 146.326 145.016 142.862 143.276 139.883C140.535 135.215 135.711 132.173 130.957 129.567C127.628 127.76 124.054 137.928 120.456 136.763C121.037 132.673 121.304 116.884 121.062 112.766C120.983 111.417 120.862 110.031 121.28 108.742C121.564 107.86 122.087 107.071 122.442 106.212C123.861 102.775 122.508 98.3809 124.802 95.4563C126.388 93.4232 129.169 92.8449 131.429 91.5919C133.75 90.3027 135.544 88.2787 137.566 86.5498C141.532 83.1975 146.379 81.0436 151.534 80.342C153.038 82.7032 153.952 85.3884 154.2 88.1732C154.355 89.9232 154.243 91.6973 154.488 93.4382C154.824 95.7966 155.804 98.0104 156.776 100.191C160.821 109.284 164.882 118.405 170.009 126.944C171.458 129.353 173.035 131.763 175.135 133.639C177.235 135.516 180.258 136.856 183.078 136.724Z" fill="black"/>
<path d="M178.512 74.8391C192.838 74.8391 204.452 63.2796 204.452 49.0203C204.452 34.7609 192.838 23.2014 178.512 23.2014C164.186 23.2014 152.572 34.7609 152.572 49.0203C152.572 63.2796 164.186 74.8391 178.512 74.8391Z" fill="#EFB7B9"/>
<path d="M164.901 83.4264C165.612 76.7458 162.822 70.2097 159.662 64.2731C158.149 61.4358 156.527 58.6075 155.768 55.4901C155.008 52.3727 155.226 48.8426 157.169 46.2794C158.821 44.0987 161.442 42.921 163.866 41.6409C170.708 38.0265 176.963 32.7134 179.97 25.608C178.27 26.5297 178.712 29.2797 180.213 30.4935C181.714 31.7073 183.759 31.9423 185.605 32.5206C192.335 34.629 196.372 41.3096 199.61 47.5505C200.139 48.5685 200.678 49.6438 200.672 50.7914C200.666 51.939 200.139 52.957 199.589 53.9329C197.991 56.7642 196.036 59.484 195.31 62.6496C194.478 66.264 195.355 70.0652 196.496 73.6103C197.706 77.3813 199.313 81.1825 202.218 83.8872C205.123 86.592 209.629 87.9354 213.203 86.1884C209.635 80.0831 205.94 73.2609 207.332 66.3393C208.004 63.0261 209.811 60.0141 210.579 56.719C212.044 50.433 209.605 43.9662 207.211 37.9663L200.058 20.0599C198.965 17.322 197.721 14.4004 195.216 12.8492C193.521 11.8041 191.47 11.533 189.484 11.3432C183.093 10.777 176.472 10.9637 170.523 13.3311C159.684 17.6413 152.887 28.2676 147.495 38.5747C145.879 41.662 144.284 44.9421 144.35 48.424C144.387 50.3336 144.922 52.192 145.358 54.0534C147.131 61.6316 147.228 69.4839 147.319 77.2639C147.389 83.2336 147.077 88.8601 144.453 94.2967C148.048 95.0075 153.262 96.9262 156.821 95.5226C161.46 93.6973 164.317 88.0739 164.901 83.4264Z" fill="#454B69"/>
<g opacity="0.1">
<path opacity="0.1" d="M147.304 77.1374C147.316 76.288 147.316 75.4306 147.304 74.5651C147.213 66.7851 147.116 58.9329 145.343 51.3547C144.947 49.8799 144.638 48.3834 144.417 46.8728C144.355 47.3915 144.327 47.9137 144.335 48.436C144.372 50.3456 144.907 52.204 145.343 54.0655C147.107 61.5985 147.216 69.4026 147.304 77.1374Z" fill="black"/>
<path opacity="0.1" d="M210.579 56.719C210.977 54.9591 211.109 53.1503 210.973 51.3516C210.913 52.2462 210.782 53.1346 210.579 54.0082C209.811 57.3214 208.004 60.3063 207.332 63.6285C207.043 65.0939 206.961 66.5924 207.09 68.0803C207.138 67.496 207.219 66.9147 207.332 66.3393C208.004 63.0171 209.811 60.0202 210.579 56.719Z" fill="black"/>
<path opacity="0.1" d="M200.436 49.4089C200.584 48.981 200.663 48.5329 200.672 48.0806C200.672 46.933 200.139 45.8577 199.61 44.8397C196.372 38.5988 192.347 31.9242 185.605 29.8098C183.759 29.2315 181.717 28.9965 180.213 27.7827C179.826 27.4509 179.509 27.0456 179.281 26.5905C179.054 26.1353 178.92 25.6395 178.887 25.1321C175.607 31.126 169.972 35.7103 163.866 38.9301C161.445 40.2102 158.821 41.3879 157.169 43.5686C155.617 45.6168 155.166 48.2824 155.435 50.8606C155.588 49.2059 156.187 47.623 157.169 46.2794C158.821 44.0987 161.442 42.921 163.866 41.6409C169.972 38.4211 175.607 33.8368 178.887 27.8429C178.92 28.3503 179.054 28.8461 179.281 29.3013C179.509 29.7564 179.826 30.1617 180.213 30.4935C181.726 31.6983 183.759 31.9423 185.605 32.5206C192.335 34.629 196.372 41.3096 199.61 47.5505C199.938 48.1453 200.214 48.767 200.436 49.4089Z" fill="black"/>
<path opacity="0.1" d="M202.218 81.1764C199.313 78.4656 197.712 74.6705 196.496 70.8995C195.766 68.7811 195.279 66.5876 195.043 64.3604C194.762 67.4537 195.534 70.6193 196.496 73.6103C197.706 77.3813 199.313 81.1824 202.218 83.8872C205.123 86.592 209.629 87.9353 213.203 86.1884C212.773 85.4565 212.347 84.7125 211.923 83.9625C208.603 84.8932 204.79 83.5679 202.218 81.1764Z" fill="black"/>
<path opacity="0.1" d="M164.901 80.7156C164.317 85.3631 161.46 90.9865 156.809 92.8238C153.58 94.0979 148.983 92.6341 145.476 91.8238C145.174 92.6693 144.829 93.4987 144.441 94.3087C148.036 95.0196 153.25 96.9382 156.809 95.5346C161.46 93.6973 164.317 88.0739 164.901 83.4264C165.021 82.2636 165.043 81.0929 164.967 79.9265C164.949 80.1885 164.922 80.4536 164.901 80.7156Z" fill="black"/>
</g>
<path d="M201.568 155.395C196.892 154.657 192.147 153.233 187.511 154.19C184.824 154.745 182.367 156.076 180.134 157.684C181.362 158.663 182.797 159.537 183.578 160.898C184.062 161.84 184.426 162.839 184.661 163.871C185.151 165.678 185.644 167.521 185.72 169.401C185.796 171.28 185.417 173.238 184.292 174.753C190.187 175.332 195.9 173.886 201.649 172.473C202.307 172.358 202.933 172.107 203.486 171.735C204.394 171.024 204.66 169.759 204.666 168.606C204.666 166.546 204.085 164.537 203.495 162.561C202.793 160.19 202.273 157.751 201.568 155.395Z" fill="white"/>
<path d="M233.136 104.592C235.457 104.893 237.257 106.757 238.583 108.673C242.302 114.004 243.906 120.468 245.691 126.712C247.91 134.477 250.52 142.119 253.519 149.639C254.165 151.376 254.951 153.058 255.868 154.669C256.615 155.913 257.523 157.109 257.853 158.522C258.652 161.937 255.822 165.148 252.872 167.052C251.299 168.107 249.582 168.93 247.773 169.497C246.012 170.021 244.175 170.22 242.35 170.419L225.552 172.226C217.821 173.063 210.019 173.901 202.285 173.094C201.798 171.407 202.754 170.214 202.684 168.458C202.636 167.202 202.079 166.033 201.583 164.877C200.668 162.817 200.063 160.634 199.788 158.398C199.701 157.576 199.67 156.732 199.356 155.967C199.041 155.202 198.366 154.516 197.54 154.461C202.079 154.013 205.526 153.16 210.065 152.708C211.75 152.54 213.503 152.35 214.94 151.458C216.722 150.353 217.721 148.359 218.514 146.425C220.478 141.636 221.743 136.359 220.711 131.287C219.863 127.127 217.5 123.254 217.512 119.01C217.512 116.483 218.378 114.034 219.4 111.721C220.484 109.275 221.897 106.775 224.275 105.534C226.654 104.293 230.452 104.23 233.136 104.592Z" fill="#FF1E56"/>
<path opacity="0.08" d="M233.136 104.592C235.457 104.893 237.257 106.757 238.583 108.673C242.302 114.004 243.906 120.468 245.691 126.712C247.91 134.477 250.52 142.119 253.519 149.639C254.165 151.376 254.951 153.058 255.868 154.669C256.615 155.913 257.523 157.109 257.853 158.522C258.652 161.937 255.822 165.148 252.872 167.052C251.299 168.107 249.582 168.93 247.773 169.497C246.012 170.021 244.175 170.22 242.35 170.419L225.552 172.226C217.821 173.063 210.019 173.901 202.285 173.094C201.798 171.407 202.754 170.214 202.684 168.458C202.636 167.202 202.079 166.033 201.583 164.877C200.668 162.817 200.063 160.634 199.788 158.398C199.701 157.576 199.67 156.732 199.356 155.967C199.041 155.202 198.366 154.516 197.54 154.461C202.079 154.013 205.526 153.16 210.065 152.708C211.75 152.54 213.503 152.35 214.94 151.458C216.722 150.353 217.721 148.359 218.514 146.425C220.478 141.636 221.743 136.359 220.711 131.287C219.863 127.127 217.5 123.254 217.512 119.01C217.512 116.483 218.378 114.034 219.4 111.721C220.484 109.275 221.897 106.775 224.275 105.534C226.654 104.293 230.452 104.23 233.136 104.592Z" fill="black"/>
<path d="M127.946 100.679C129.044 98.0828 130.161 95.4021 130.191 92.5859C130.225 89.5407 128.981 86.6492 128.031 83.7577C126.856 80.2199 126.073 76.5646 125.698 72.8573C125.62 72.5021 125.673 72.1309 125.849 71.8121C126.1 71.4597 126.584 71.3874 127.011 71.294C129.105 70.8181 130.688 69.1344 131.995 67.4387C134.023 64.8198 135.735 61.973 137.097 58.9569C138.099 56.737 139.454 54.0293 141.899 54.0082C140.915 58.6103 139.695 63.1594 138.244 67.6375C140.801 66.9869 143.231 66.0411 145.788 65.3905C146.288 65.2332 146.813 65.1639 147.337 65.1857C148.868 65.3453 149.806 67.4086 148.917 68.6585C150.167 70.1164 152.245 70.5079 153.88 71.5079C155.514 72.5079 156.688 74.9837 155.235 76.2398C154.951 76.4837 154.591 76.6554 154.385 76.9687C153.683 78.0469 155.402 79.2849 155.259 80.562C155.144 81.6071 153.798 82.0951 152.778 81.818C151.758 81.5409 150.962 80.7818 150.055 80.2246C149.147 79.6674 147.961 79.321 147.08 79.8993C146.844 82.7336 146.59 85.6221 145.358 88.2034C144.907 89.1462 144.329 90.0287 143.966 91.0076C143.619 92.075 143.403 93.1805 143.325 94.2997L142.226 104.297C136.985 105.342 132.285 103.778 127.946 100.679Z" fill="#EFB7B9"/>
<path d="M126.666 109.64L125.701 103.137C125.608 102.607 125.557 102.072 125.546 101.534C125.546 100.028 126.212 98.5918 126.857 97.2213C132.198 99.7032 137.971 100.586 143.863 100.589C144.641 100.589 145.528 100.516 146.012 99.911C147.013 101.059 147.044 102.905 146.617 104.363C146.19 105.821 145.37 107.134 144.825 108.555C144.55 109.275 144.326 110.061 143.8 110.616C142.983 111.492 141.657 111.643 140.453 111.637C139.186 111.629 137.922 111.509 136.676 111.278C133.45 110.682 129.892 109.064 126.666 109.64Z" fill="white"/>
<path d="M146.587 109.375C142.441 108.905 138.322 108.242 134.231 107.387C132.225 106.968 130.2 106.501 128.155 106.583C126.823 106.637 125.392 106.902 124.221 106.245C125.362 110.11 125.431 114.182 124.067 117.974C123.259 120.233 122.027 122.338 121.434 124.664C120.199 129.528 121.894 134.832 120.351 139.609C120.187 140.233 119.866 140.806 119.418 141.272C118.946 141.703 118.302 141.925 117.866 142.392C117.225 143.079 117.185 144.112 117.182 145.049L117.155 153.347C117.137 158.63 117.206 164.232 120.009 168.708C123.204 173.829 129.931 176.482 135.787 174.925C137.343 174.529 138.802 173.818 140.072 172.838C142.105 171.229 143.4 168.904 144.668 166.639C146.181 163.928 147.694 161.157 148.181 158.106C148.526 155.946 148.333 153.742 148.085 151.57C146.717 139.522 143.748 127.576 144.387 115.483C144.482 113.272 145.249 111.142 146.587 109.375Z" fill="#FF1E56"/>
<path d="M163.914 159.374C161.811 159.494 159.693 159.615 157.599 159.374C156.086 159.193 154.609 158.823 153.108 158.57C149.009 157.911 144.815 158.143 140.814 159.249C136.814 160.355 133.101 162.31 129.931 164.979C128.769 165.967 127.595 167.482 128.236 168.865C128.926 170.353 131.036 170.311 132.661 170.033C130.907 170.867 129.357 172.073 128.121 173.567C127.668 174.118 127.238 174.771 127.326 175.485C127.51 176.976 129.544 177.247 131.048 177.118C130.557 177.642 130.887 178.569 131.511 178.925C132.134 179.28 132.909 179.208 133.614 179.079C135.173 178.794 136.679 178.275 138.08 177.539C137.796 178.277 138.289 179.142 138.988 179.509C139.687 179.877 140.538 179.85 141.321 179.723C145.019 179.121 148.106 176.56 151.713 175.554C157.481 173.949 163.515 176.509 169.509 176.69C171.385 176.747 173.31 176.557 175.02 175.786C177.117 174.838 178.808 173.057 181.024 172.425C183.484 171.726 186.307 172.53 188.558 171.323C190.196 170.446 188.719 163.69 188.301 162.389C187.536 160.01 186.767 158.431 184.216 158.19C177.761 157.561 170.417 159 163.914 159.374Z" fill="#EFB7B9"/>
<path d="M180.016 157.531C180.016 157.531 189.787 165.762 184.15 174.744L195.043 171V163.142C195.043 162.768 190.907 157.157 190.907 157.157L186.02 156.407L180.016 157.531Z" fill="white"/>
<path d="M77.7069 157.022H81.3715C83.3779 157.022 85.3021 157.815 86.7209 159.227C88.1396 160.639 88.9367 162.555 88.9367 164.552V175.729H70.1417V164.552C70.1417 163.563 70.3373 162.584 70.7175 161.67C71.0977 160.756 71.655 159.926 72.3575 159.227C73.06 158.528 73.8939 157.973 74.8118 157.595C75.7296 157.216 76.7134 157.022 77.7069 157.022Z" fill="#3F3D56"/>
<path opacity="0.1" d="M77.7069 157.022H81.3715C83.3779 157.022 85.3021 157.815 86.7209 159.227C88.1396 160.639 88.9367 162.555 88.9367 164.552V175.729H70.1417V164.552C70.1417 163.563 70.3373 162.584 70.7175 161.67C71.0977 160.756 71.655 159.926 72.3575 159.227C73.06 158.528 73.8939 157.973 74.8118 157.595C75.7296 157.216 76.7134 157.022 77.7069 157.022Z" fill="black"/>
<path d="M78.7872 161.136C79.6178 161.136 80.2912 160.466 80.2912 159.639C80.2912 158.812 79.6178 158.142 78.7872 158.142C77.9566 158.142 77.2832 158.812 77.2832 159.639C77.2832 160.466 77.9566 161.136 78.7872 161.136Z" fill="#3F3D56"/>
<path d="M78.7872 159.266C79.6178 159.266 80.2912 158.595 80.2912 157.769C80.2912 156.942 79.6178 156.272 78.7872 156.272C77.9566 156.272 77.2832 156.942 77.2832 157.769C77.2832 158.595 77.9566 159.266 78.7872 159.266Z" fill="#3F3D56"/>
<path d="M78.7872 157.395C79.6178 157.395 80.2912 156.725 80.2912 155.898C80.2912 155.071 79.6178 154.401 78.7872 154.401C77.9566 154.401 77.2832 155.071 77.2832 155.898C77.2832 156.725 77.9566 157.395 78.7872 157.395Z" fill="#3F3D56"/>
<path d="M78.7872 155.525C79.6178 155.525 80.2912 154.854 80.2912 154.028C80.2912 153.201 79.6178 152.531 78.7872 152.531C77.9566 152.531 77.2832 153.201 77.2832 154.028C77.2832 154.854 77.9566 155.525 78.7872 155.525Z" fill="#3F3D56"/>
<path d="M78.7872 153.654C79.6178 153.654 80.2912 152.984 80.2912 152.157C80.2912 151.33 79.6178 150.66 78.7872 150.66C77.9566 150.66 77.2832 151.33 77.2832 152.157C77.2832 152.984 77.9566 153.654 78.7872 153.654Z" fill="#3F3D56"/>
<path d="M78.7872 151.784C79.6178 151.784 80.2912 151.114 80.2912 150.287C80.2912 149.46 79.6178 148.79 78.7872 148.79C77.9566 148.79 77.2832 149.46 77.2832 150.287C77.2832 151.114 77.9566 151.784 78.7872 151.784Z" fill="#3F3D56"/>
<path d="M78.7872 149.91C79.6178 149.91 80.2912 149.24 80.2912 148.413C80.2912 147.586 79.6178 146.916 78.7872 146.916C77.9566 146.916 77.2832 147.586 77.2832 148.413C77.2832 149.24 77.9566 149.91 78.7872 149.91Z" fill="#3F3D56"/>
<path d="M81.0447 150.66C81.8753 150.66 82.5486 149.99 82.5486 149.163C82.5486 148.337 81.8753 147.666 81.0447 147.666C80.2141 147.666 79.5407 148.337 79.5407 149.163C79.5407 149.99 80.2141 150.66 81.0447 150.66Z" fill="#3F3D56"/>
<path d="M82.5486 149.91C83.3793 149.91 84.0526 149.24 84.0526 148.413C84.0526 147.586 83.3793 146.916 82.5486 146.916C81.718 146.916 81.0447 147.586 81.0447 148.413C81.0447 149.24 81.718 149.91 82.5486 149.91Z" fill="#3F3D56"/>
<path d="M84.0526 149.163C84.8832 149.163 85.5566 148.493 85.5566 147.666C85.5566 146.84 84.8832 146.169 84.0526 146.169C83.222 146.169 82.5486 146.84 82.5486 147.666C82.5486 148.493 83.222 149.163 84.0526 149.163Z" fill="#3F3D56"/>
<path d="M78.7872 148.04C79.6178 148.04 80.2912 147.37 80.2912 146.543C80.2912 145.716 79.6178 145.046 78.7872 145.046C77.9566 145.046 77.2832 145.716 77.2832 146.543C77.2832 147.37 77.9566 148.04 78.7872 148.04Z" fill="#3F3D56"/>
<path d="M78.7872 146.169C79.6178 146.169 80.2912 145.499 80.2912 144.672C80.2912 143.846 79.6178 143.175 78.7872 143.175C77.9566 143.175 77.2832 143.846 77.2832 144.672C77.2832 145.499 77.9566 146.169 78.7872 146.169Z" fill="#3F3D56"/>
<path d="M78.7872 144.299C79.6178 144.299 80.2912 143.629 80.2912 142.802C80.2912 141.975 79.6178 141.305 78.7872 141.305C77.9566 141.305 77.2832 141.975 77.2832 142.802C77.2832 143.629 77.9566 144.299 78.7872 144.299Z" fill="#3F3D56"/>
<path d="M78.7872 142.428C79.6178 142.428 80.2912 141.758 80.2912 140.932C80.2912 140.105 79.6178 139.435 78.7872 139.435C77.9566 139.435 77.2832 140.105 77.2832 140.932C77.2832 141.758 77.9566 142.428 78.7872 142.428Z" fill="#3F3D56"/>
<path d="M85.033 136.103C84.6578 136.157 84.2826 136.197 83.9073 136.221C84.2562 135.918 84.58 135.587 84.8757 135.233C84.6673 134.604 84.361 134.011 83.9679 133.477C83.5951 133.685 83.1829 133.814 82.7574 133.856C82.3852 133.911 82.01 133.95 81.6347 133.977C82.128 133.576 82.588 132.974 83.0721 132.471C81.9873 131.492 80.5976 130.914 79.1357 130.834C77.6739 130.754 76.2287 131.176 75.0424 132.03C73.8561 132.884 73.0006 134.118 72.6194 135.525C72.2382 136.932 72.3543 138.427 72.9484 139.758C73.5424 141.09 74.5783 142.179 75.8825 142.841C77.1866 143.503 78.6798 143.699 80.1119 143.396C81.544 143.093 82.8279 142.309 83.7486 141.176C84.6693 140.043 85.1709 138.63 85.1692 137.173C85.1693 136.806 85.1369 136.44 85.0724 136.079L85.033 136.103Z" fill="#FF1E56"/>
<path d="M90.0473 143.54C89.6638 143.775 89.2308 143.918 88.7824 143.959C88.4102 144.013 88.0349 144.055 87.6597 144.079C88.0585 143.723 88.4307 143.338 88.7733 142.928C87.8665 142.693 86.9042 142.803 86.0744 143.236C85.2446 143.67 84.6071 144.396 84.2864 145.272C83.9657 146.148 83.9849 147.112 84.3404 147.975C84.6958 148.838 85.3618 149.538 86.2082 149.939C87.0546 150.339 88.0206 150.41 88.9173 150.139C89.8139 149.868 90.5768 149.274 91.0568 148.473C91.5367 147.672 91.6992 146.722 91.5125 145.808C91.3259 144.894 90.8034 144.082 90.0473 143.531V143.54Z" fill="#FF1E56"/>
<path d="M76.5328 150.66C77.3634 150.66 78.0367 149.99 78.0367 149.163C78.0367 148.337 77.3634 147.666 76.5328 147.666C75.7022 147.666 75.0288 148.337 75.0288 149.163C75.0288 149.99 75.7022 150.66 76.5328 150.66Z" fill="#3F3D56"/>
<path d="M75.0288 149.91C75.8594 149.91 76.5328 149.24 76.5328 148.413C76.5328 147.586 75.8594 146.916 75.0288 146.916C74.1982 146.916 73.5248 147.586 73.5248 148.413C73.5248 149.24 74.1982 149.91 75.0288 149.91Z" fill="#3F3D56"/>
<path d="M73.5248 149.163C74.3555 149.163 75.0288 148.493 75.0288 147.666C75.0288 146.84 74.3555 146.169 73.5248 146.169C72.6942 146.169 72.0209 146.84 72.0209 147.666C72.0209 148.493 72.6942 149.163 73.5248 149.163Z" fill="#3F3D56"/>
<path d="M67.5302 143.54C67.9137 143.775 68.3466 143.918 68.7951 143.959C69.1673 144.013 69.5425 144.055 69.9177 144.079C69.5182 143.724 69.1459 143.339 68.8041 142.928C69.7109 142.693 70.6732 142.803 71.503 143.236C72.3328 143.67 72.9704 144.396 73.291 145.272C73.6117 146.148 73.5925 147.112 73.2371 147.975C72.8816 148.838 72.2156 149.538 71.3692 149.939C70.5228 150.339 69.5568 150.41 68.6602 150.139C67.7635 149.868 67.0006 149.274 66.5207 148.473C66.0407 147.672 65.8782 146.722 66.0649 145.808C66.2516 144.894 66.774 144.082 67.5302 143.531V143.54Z" fill="#FF1E56"/>
<path d="M77.7069 158.13H81.3714C83.3779 158.13 85.3021 158.923 86.7209 160.335C88.1396 161.748 88.9367 163.663 88.9367 165.66V175.56C88.9367 175.899 88.8015 176.224 88.5609 176.463C88.3202 176.703 87.9939 176.838 87.6536 176.838H71.4156C71.0753 176.838 70.749 176.703 70.5084 176.463C70.2677 176.224 70.1326 175.899 70.1326 175.56V165.66C70.1326 164.67 70.3285 163.69 70.7093 162.776C71.0901 161.862 71.6481 161.032 72.3516 160.332C73.055 159.633 73.8901 159.078 74.809 158.701C75.7279 158.323 76.7126 158.129 77.7069 158.13Z" fill="#3F3D56"/>
<g opacity="0.1">
<path opacity="0.1" d="M85.1359 136.513C84.9837 136.675 84.822 136.828 84.6517 136.971C84.8242 136.971 84.9937 136.944 85.1662 136.926C85.1601 136.787 85.151 136.648 85.1359 136.513Z" fill="black"/>
<path opacity="0.1" d="M82.3943 134.724C82.7725 134.7 83.1448 134.661 83.52 134.606C83.8566 134.564 84.1857 134.475 84.4974 134.341C84.3444 134.04 84.1683 133.751 83.9709 133.477C83.7827 133.591 83.5788 133.677 83.3657 133.733C83.0689 134.088 82.7441 134.42 82.3943 134.724Z" fill="black"/>
<path opacity="0.1" d="M73.1496 137.938C73.1473 136.796 73.4545 135.674 74.0388 134.691C74.6231 133.709 75.4629 132.901 76.4696 132.353C77.4764 131.806 78.6129 131.539 79.7594 131.58C80.906 131.621 82.0201 131.97 82.9844 132.588L83.0812 132.486C82.4519 131.928 81.7179 131.501 80.9217 131.227C80.1254 130.953 79.2826 130.839 78.4418 130.891C77.601 130.943 76.7788 131.16 76.0227 131.529C75.2665 131.899 74.5913 132.414 74.0359 133.044C73.4805 133.674 73.056 134.408 72.7868 135.203C72.5175 135.997 72.4089 136.837 72.4672 137.673C72.5254 138.51 72.7494 139.327 73.1262 140.076C73.503 140.826 74.0252 141.495 74.6626 142.043C73.684 140.897 73.1475 139.442 73.1496 137.938Z" fill="black"/>
</g>
<g opacity="0.1">
<path opacity="0.1" d="M87.6597 144.826C88.0349 144.802 88.4101 144.763 88.7824 144.709C89.231 144.667 89.664 144.523 90.0473 144.287C90.4721 144.598 90.8264 144.995 91.0871 145.452C91.3478 145.909 91.509 146.415 91.5603 146.937C91.575 146.806 91.5821 146.675 91.5815 146.543C91.5844 145.958 91.4489 145.38 91.186 144.857C90.9232 144.334 90.5403 143.88 90.0684 143.531C89.6849 143.766 89.252 143.909 88.8035 143.949L88.5009 143.989C88.2427 144.289 87.9614 144.569 87.6597 144.826Z" fill="black"/>
<path opacity="0.1" d="M87.811 143.549C87.9365 143.55 88.0618 143.559 88.1862 143.576C88.3829 143.368 88.5766 143.145 88.7733 142.928C88.2169 142.781 87.6339 142.762 87.0692 142.874C86.5046 142.987 85.9735 143.227 85.5171 143.576C85.0607 143.926 84.6912 144.375 84.4372 144.89C84.1833 145.404 84.0517 145.97 84.0526 146.543C84.0526 146.669 84.0526 146.793 84.0707 146.916C84.1638 145.993 84.598 145.138 85.2892 144.515C85.9803 143.893 86.879 143.549 87.811 143.549Z" fill="black"/>
</g>
<g opacity="0.1">
<path opacity="0.1" d="M69.9177 144.826C69.5425 144.802 69.1673 144.763 68.7951 144.709C68.3464 144.667 67.9135 144.523 67.5302 144.287C67.1053 144.598 66.751 144.995 66.4903 145.452C66.2296 145.909 66.0684 146.415 66.0171 146.937C66.0024 146.806 65.9954 146.675 65.9959 146.543C65.9931 145.958 66.1285 145.38 66.3914 144.857C66.6542 144.334 67.0371 143.88 67.509 143.531C67.8925 143.766 68.3254 143.909 68.7739 143.949L69.0765 143.989C69.3331 144.291 69.6145 144.571 69.9177 144.826Z" fill="black"/>
<path opacity="0.1" d="M69.7664 143.549C69.6399 143.55 69.5136 143.56 69.3882 143.576C69.1945 143.368 69.0008 143.145 68.8041 142.928C69.3605 142.781 69.9435 142.762 70.5082 142.874C71.0728 142.987 71.6039 143.227 72.0603 143.576C72.5167 143.926 72.8862 144.375 73.1402 144.89C73.3942 145.404 73.5258 145.97 73.5248 146.543C73.5248 146.669 73.5248 146.793 73.5067 146.916C73.4136 145.993 72.9794 145.138 72.2883 144.515C71.5971 143.893 70.6984 143.549 69.7664 143.549Z" fill="black"/>
</g>
<path d="M59.5685 180.458H30.0037C29.6706 180.458 29.3512 180.326 29.1157 180.092C28.8801 179.857 28.7478 179.539 28.7478 179.208V165.28C28.7478 165.07 28.8014 164.862 28.9036 164.677C29.0058 164.492 29.1533 164.336 29.3324 164.224C29.5116 164.111 29.7164 164.045 29.928 164.032C30.1395 164.02 30.3509 164.06 30.5423 164.151C39.0365 168.163 48.1874 169.539 58.9875 164.214C59.179 164.12 59.3913 164.076 59.6045 164.086C59.8177 164.097 60.0248 164.161 60.2064 164.272C60.3879 164.384 60.538 164.54 60.6424 164.725C60.7468 164.911 60.8021 165.119 60.8032 165.332V179.187C60.806 179.351 60.7763 179.514 60.7157 179.667C60.6552 179.82 60.565 179.959 60.4504 180.077C60.3357 180.195 60.1988 180.289 60.0475 180.355C59.8962 180.42 59.7335 180.455 59.5685 180.458Z" fill="#FF1E56"/>
<path opacity="0.1" d="M59.5685 180.458H30.0037C29.6706 180.458 29.3512 180.326 29.1157 180.092C28.8801 179.857 28.7478 179.539 28.7478 179.208V165.28C28.7478 165.07 28.8014 164.862 28.9036 164.677C29.0058 164.492 29.1533 164.336 29.3324 164.224C29.5116 164.111 29.7164 164.045 29.928 164.032C30.1395 164.02 30.3509 164.06 30.5423 164.151C39.0365 168.163 48.1874 169.539 58.9875 164.214C59.179 164.12 59.3913 164.076 59.6045 164.086C59.8177 164.097 60.0248 164.161 60.2064 164.272C60.3879 164.384 60.538 164.54 60.6424 164.725C60.7468 164.911 60.8021 165.119 60.8032 165.332V179.187C60.806 179.351 60.7763 179.514 60.7157 179.667C60.6552 179.82 60.565 179.959 60.4504 180.077C60.3357 180.195 60.1988 180.289 60.0475 180.355C59.8962 180.42 59.7335 180.455 59.5685 180.458Z" fill="black"/>
<path d="M44.5803 169.871C45.5463 169.871 46.3294 168.85 46.3294 167.591C46.3294 166.331 45.5463 165.311 44.5803 165.311C43.6143 165.311 42.8312 166.331 42.8312 167.591C42.8312 168.85 43.6143 169.871 44.5803 169.871Z" fill="#3F3D56"/>
<path d="M44.5803 167.085C45.5463 167.085 46.3294 166.064 46.3294 164.805C46.3294 163.545 45.5463 162.524 44.5803 162.524C43.6143 162.524 42.8312 163.545 42.8312 164.805C42.8312 166.064 43.6143 167.085 44.5803 167.085Z" fill="#3F3D56"/>
<path d="M44.5803 164.296C45.5463 164.296 46.3294 163.275 46.3294 162.015C46.3294 160.756 45.5463 159.735 44.5803 159.735C43.6143 159.735 42.8312 160.756 42.8312 162.015C42.8312 163.275 43.6143 164.296 44.5803 164.296Z" fill="#3F3D56"/>
<path d="M44.5803 161.509C45.5463 161.509 46.3294 160.489 46.3294 159.229C46.3294 157.97 45.5463 156.949 44.5803 156.949C43.6143 156.949 42.8312 157.97 42.8312 159.229C42.8312 160.489 43.6143 161.509 44.5803 161.509Z" fill="#3F3D56"/>
<path d="M44.5803 158.72C45.5463 158.72 46.3294 157.699 46.3294 156.44C46.3294 155.181 45.5463 154.16 44.5803 154.16C43.6143 154.16 42.8312 155.181 42.8312 156.44C42.8312 157.699 43.6143 158.72 44.5803 158.72Z" fill="#3F3D56"/>
<path d="M44.5803 155.931C45.5463 155.931 46.3294 154.91 46.3294 153.651C46.3294 152.392 45.5463 151.371 44.5803 151.371C43.6143 151.371 42.8312 152.392 42.8312 153.651C42.8312 154.91 43.6143 155.931 44.5803 155.931Z" fill="#3F3D56"/>
<path d="M44.5803 153.145C45.5463 153.145 46.3294 152.124 46.3294 150.865C46.3294 149.606 45.5463 148.585 44.5803 148.585C43.6143 148.585 42.8312 149.606 42.8312 150.865C42.8312 152.124 43.6143 153.145 44.5803 153.145Z" fill="#3F3D56"/>
<path d="M51.1409 131.787C51.3784 131.483 51.5957 131.164 51.7915 130.832L47.1918 130.079L52.1667 130.115C52.6467 129.08 52.9085 127.958 52.9361 126.819C52.9637 125.679 52.7564 124.546 52.3271 123.489L45.6546 126.935L51.8096 122.417C51.2333 121.425 50.4579 120.561 49.5317 119.881C48.6056 119.2 47.5485 118.716 46.4263 118.46C45.3041 118.204 44.141 118.18 43.0093 118.391C41.8775 118.601 40.8015 119.042 39.8483 119.684C38.895 120.327 38.0849 121.158 37.4685 122.126C36.852 123.094 36.4424 124.178 36.2652 125.31C36.088 126.442 36.1469 127.599 36.4384 128.707C36.7298 129.816 37.2475 130.853 37.9592 131.754C37.5853 132.224 37.2646 132.735 37.003 133.275L42.9704 136.395L36.6157 134.257C36.1702 135.571 36.0607 136.976 36.2968 138.343C36.533 139.71 37.1074 140.997 37.9683 142.088C36.9955 143.319 36.3903 144.798 36.222 146.355C36.0536 147.913 36.329 149.486 37.0165 150.895C37.704 152.303 38.776 153.491 40.1098 154.322C41.4436 155.154 42.9855 155.594 44.5591 155.594C46.1328 155.594 47.6746 155.154 49.0085 154.322C50.3423 153.491 51.4143 152.303 52.1018 150.895C52.7893 149.486 53.0646 147.913 52.8963 146.355C52.728 144.798 52.1228 143.319 51.15 142.088C52.3123 140.617 52.9442 138.8 52.9442 136.929C52.9442 135.057 52.3123 133.24 51.15 131.769L51.1409 131.787Z" fill="#FF1E56"/>
<path opacity="0.1" d="M36.1587 136.947C36.1559 138.819 36.7882 140.637 37.9532 142.106C36.9803 143.337 36.3751 144.816 36.2068 146.373C36.0385 147.931 36.3138 149.504 37.0014 150.913C37.6889 152.321 38.7608 153.509 40.0947 154.34C41.4285 155.172 42.9704 155.612 44.544 155.612C46.1176 155.612 47.6595 155.172 48.9933 154.34C50.3271 153.509 51.3991 152.321 52.0866 150.913C52.7741 149.504 53.0495 147.931 52.8812 146.373C52.7128 144.816 52.1076 143.337 51.1348 142.106C52.2575 140.688 36.1587 136.01 36.1587 136.947Z" fill="black"/>
<path d="M59.5685 181.196H30.0037C29.6706 181.196 29.3512 181.064 29.1157 180.83C28.8801 180.595 28.7478 180.277 28.7478 179.946V165.28C28.7478 165.07 28.8014 164.862 28.9036 164.677C29.0058 164.492 29.1533 164.336 29.3324 164.224C29.5116 164.111 29.7164 164.045 29.928 164.032C30.1395 164.02 30.3509 164.06 30.5423 164.151C39.0365 168.163 45.7726 172.841 58.9875 164.214C59.7713 163.702 60.8032 164.401 60.8032 165.332V179.94C60.8048 180.269 60.6761 180.585 60.445 180.82C60.2139 181.055 59.899 181.19 59.5685 181.196Z" fill="#FF1E56"/>
<path d="M278.954 177.048L235.336 182.792L233.154 183.078L211.829 171.741V169.088L278.47 161.853L278.954 177.048Z" fill="#9C9CA1"/>
<path d="M224.188 172.946L271.44 167.401L270.956 176.085L234.15 178.771L224.188 172.946Z" fill="#939498"/>
<path opacity="0.4" d="M235.336 179.94V182.789L233.154 183.09L211.826 171.741V169.088L232.183 179.931C232.183 179.931 234.852 180.181 235.336 179.94Z" fill="black"/>
<path d="M243.709 134.715L233.916 179.91C233.818 180.362 233.83 180.832 233.952 181.279C234.074 181.725 234.302 182.136 234.617 182.477C234.932 182.818 235.325 183.078 235.763 183.235C236.2 183.393 236.669 183.443 237.13 183.383L299.083 175.22C299.623 175.149 300.132 174.929 300.551 174.584C300.971 174.238 301.284 173.783 301.456 173.268L314.822 133.149C314.97 132.703 315.006 132.229 314.929 131.767C314.852 131.304 314.662 130.868 314.378 130.494C314.093 130.121 313.721 129.822 313.295 129.623C312.868 129.424 312.4 129.332 311.929 129.353L246.408 132.45C245.771 132.48 245.161 132.718 244.673 133.127C244.185 133.537 243.846 134.095 243.709 134.715Z" fill="#3F3D56"/>
<path d="M277.751 151.388C277.903 149.949 277.273 148.703 276.344 148.606C275.415 148.509 274.538 149.597 274.386 151.036C274.234 152.475 274.864 153.721 275.794 153.818C276.723 153.915 277.599 152.827 277.751 151.388Z" fill="white"/>
</g>
<defs>
<clipPath id="clip0">
<rect width="348" height="189" fill="white"/>
</clipPath>
</defs>
</svg>
