<svg width="239" height="194" viewBox="0 0 239 194" fill="none" xmlns="http://www.w3.org/2000/svg">
<g clip-path="url(#clip0)">
<path d="M161.023 178.161C149.898 178.191 138.785 177.462 127.76 175.98C127.4 175.934 127.035 175.883 126.673 175.828C123.967 175.443 121.259 175.003 118.627 174.52C106.781 172.352 95.6109 169.186 85.4259 165.109C51.5327 151.541 30.2225 154.429 18.314 159.24C5.4265 164.447 0.472463 172.966 0.423906 173.052L0 172.811C0.0491489 172.724 5.0671 164.078 18.0954 158.802C25.7342 155.709 34.5958 154.357 44.4362 154.783C56.7194 155.315 70.5713 158.637 85.607 164.656C95.7618 168.721 106.901 171.878 118.714 174.04C121.34 174.522 124.042 174.961 126.743 175.346C127.104 175.399 127.465 175.45 127.824 175.496C157.71 179.61 186.541 177.129 205.465 174.324C221.063 172.012 231.102 169.308 231.201 169.281L231.329 169.752C231.229 169.779 221.166 172.49 205.537 174.807C190.799 177.003 175.922 178.124 161.023 178.161Z" fill="#3F3D56"/>
<path d="M161.056 38.1652C152.463 38.1653 144.098 37.7629 136.028 36.9585C117.482 35.1102 100.457 31.1221 85.4259 25.1052C51.5327 11.5375 30.2225 14.4249 18.314 19.2365C5.4265 24.4433 0.472463 32.9626 0.423906 33.048L0 32.8072C0.0491489 32.7205 5.0671 24.0746 18.0954 18.7988C25.7343 15.7054 34.5958 14.3529 44.4362 14.7795C56.7194 15.3118 70.5713 18.6334 85.607 24.6521C119.554 38.241 157.328 38.775 183.039 36.8317C210.907 34.7244 231.002 29.3318 231.201 29.2776L231.329 29.7482C231.129 29.8027 210.998 35.2058 183.087 37.3173C175.613 37.8826 168.254 38.1652 161.056 38.1652Z" fill="#3F3D56"/>
<path d="M159.793 2.35848C159.793 2.35848 150.211 -1.06637 144.051 12.6331C137.891 26.3325 128.308 41.4019 128.308 41.4019L133.784 42.7718C133.784 42.7718 135.153 33.1822 138.575 31.8123L137.206 44.1417C137.206 44.1417 178.274 58.5262 196.754 42.7718L196.07 37.977C196.07 37.977 198.808 38.662 198.808 42.7718L200.861 40.7169C200.861 40.7169 198.808 36.6071 192.648 31.1273C188.604 27.5306 187.215 20.688 186.737 16.4098C186.38 12.8375 184.952 9.45682 182.64 6.71108C178.546 1.96315 171.087 -3.08324 159.793 2.35848Z" fill="#2F2E41"/>
<path d="M217.953 79.8783C217.953 79.8783 235.985 95.2701 238.637 104.293C241.288 113.316 228.56 114.377 228.56 114.377L200.981 117.031C200.981 117.031 200.451 129.769 195.678 131.361C190.904 132.954 194.708 110.297 194.708 110.297L221.665 102.701L209.467 89.9626L217.953 79.8783Z" fill="#FBBEBE"/>
<path d="M133.626 95.8009L131.504 123.931L119.836 171.699C119.836 171.699 109.229 193.459 118.245 193.99C127.261 194.521 126.731 173.291 126.731 173.291L143.702 128.177L145.293 97.3932L133.626 95.8009Z" fill="#FBBEBE"/>
<path d="M163.326 46.4409C172.992 46.4409 180.827 38.5992 180.827 28.926C180.827 19.2529 172.992 11.4112 163.326 11.4112C153.66 11.4112 145.824 19.2529 145.824 28.926C145.824 38.5992 153.66 46.4409 163.326 46.4409Z" fill="#FBBEBE"/>
<path d="M155.37 37.4181C155.37 37.4181 161.735 60.2405 151.658 66.0788C141.581 71.917 177.115 76.1631 186.661 58.6482C186.661 58.6482 169.69 52.8099 174.463 37.4181H155.37Z" fill="#FBBEBE"/>
<path d="M143.172 68.7325L139.99 67.671C139.99 67.671 133.626 70.3248 133.626 75.1016C133.626 79.8783 132.565 98.9854 132.565 98.9854L146.885 100.578L143.172 68.7325Z" fill="#FF1E56"/>
<path d="M205.501 174.565C185.922 177.468 157.387 179.812 127.793 175.738C127.791 175.446 127.791 175.16 127.791 174.882C127.791 173.226 127.854 171.589 127.981 169.97C129.497 150.038 139.758 133.42 143.728 127.662C143.928 127.369 144.113 127.106 144.279 126.871C144.92 125.971 145.293 125.496 145.293 125.496C145.293 125.496 176.054 124.993 191.964 131.362C192.731 131.684 193.433 132.144 194.036 132.718C199.968 138.196 203.454 155.982 205.501 174.565Z" fill="#2F2E41"/>
<path d="M194.086 61.302C194.086 61.302 200.981 57.5867 207.876 65.548L221.665 81.4706L211.058 93.1471L190.904 80.9398L194.086 61.302Z" fill="#FF1E56"/>
<path d="M144.413 29.0371C150.609 24.5498 155.625 19.3813 158.942 13.2332C158.942 13.2332 170.313 25.8763 177.261 26.5084C184.21 27.1406 177.893 11.3367 177.893 11.3367L165.259 8.1759L153.257 9.44022L143.782 15.7618L144.413 29.0371Z" fill="#2F2E41"/>
<path d="M184.01 57.5867C184.01 57.5867 176.588 69.3304 154.311 63.724L141.67 67.208L139.99 67.671C139.99 67.671 141.581 99.5162 145.824 105.354C150.067 111.193 149.006 114.377 147.945 114.908C146.885 115.439 144.233 114.377 145.824 117.031C147.415 119.685 149.536 118.093 147.415 119.685C145.293 121.277 144.233 127.115 144.233 127.115L194.086 133.484C194.086 133.484 192.495 112.785 196.738 102.17C200.981 91.5549 202.042 87.3089 202.042 87.3089L198.86 60.7713L184.01 57.5867Z" fill="#FF1E56"/>
<path d="M80.3982 47.1963H12.1546V132.564H80.3982V47.1963Z" fill="#E6E6E6"/>
<path d="M31.5309 54.3915H16.9073V64.1479H31.5309V54.3915Z" fill="white"/>
<path d="M73.5738 73.4164H17.0291V76.8312H73.5738V73.4164Z" fill="white"/>
<path d="M73.5738 82.441H17.0291V85.8558H73.5738V82.441Z" fill="white"/>
<path d="M73.5738 91.4656H17.0291V94.8804H73.5738V91.4656Z" fill="white"/>
<path d="M73.5738 100.49H17.0291V103.905H73.5738V100.49Z" fill="white"/>
<path d="M73.5738 109.515H17.0291V112.93H73.5738V109.515Z" fill="white"/>
<path d="M93.8032 132.442C93.8001 135.664 92.6355 138.776 90.5232 141.207C88.411 143.638 85.4931 145.225 82.3056 145.675C79.1181 146.126 75.8752 145.41 73.1727 143.66C70.4702 141.909 68.4897 139.242 67.5951 136.147C66.7004 133.053 66.9518 129.739 68.3029 126.815C69.654 123.891 72.0142 121.553 74.9497 120.231C77.8852 118.909 81.1989 118.691 84.2819 119.618C87.3649 120.545 90.0101 122.554 91.7315 125.276C93.0852 127.421 93.8036 129.906 93.8032 132.442Z" fill="#FF1E56"/>
<path d="M91.7315 125.276L78.5361 138.479C77.7068 137.194 73.0864 131.223 73.0864 131.223C73.6785 130.624 74.3104 130.066 74.9777 129.552L78.8091 134.664L90.1863 123.279C90.7632 123.894 91.2806 124.563 91.7315 125.276Z" fill="white"/>
</g>
<defs>
<clipPath id="clip0">
<rect width="239" height="194" fill="white"/>
</clipPath>
</defs>
</svg>
